<?xml version="1.0" encoding="UTF-8"?>
<svg width="173px" height="33px" viewBox="0 0 173 33" version="1.1" xmlns="http://www.w3.org/2000/svg" xmlns:xlink="http://www.w3.org/1999/xlink">
    <!-- Generator: Sketch 51.2 (57519) - http://www.bohemiancoding.com/sketch -->
    <title>logo</title>
    <desc>Created with Sketch.</desc>
    <defs>
        <linearGradient x1="0.978571429%" y1="49.75%" x2="1294.96786%" y2="49.75%" id="linearGradient-1">
            <stop stop-color="#602D90" offset="0%"></stop>
            <stop stop-color="#AF1F7B" offset="99.87%"></stop>
        </linearGradient>
        <linearGradient x1="0.35%" y1="49.994375%" x2="99.8598901%" y2="49.994375%" id="linearGradient-2">
            <stop stop-color="#602D90" offset="0%"></stop>
            <stop stop-color="#AF1F7B" offset="99.87%"></stop>
        </linearGradient>
    </defs>
    <g id="Page-1" stroke="none" stroke-width="1" fill="none" fill-rule="evenodd">
        <g id="logo" fill-rule="nonzero">
            <g id="Group">
                <polygon id="Shape" fill="url(#linearGradient-1)" points="3 1.7 0.2 0.7 0.2 4.1 3 4.1"></polygon>
                <path d="M30.9,0.6 C27.8,0.6 25.3,3.1 25.3,6.2 L25.3,27 C25.3,28.5 24.1,29.8 22.5,29.8 C21,29.8 19.7,28.6 19.7,27 L19.7,6.1 C19.7,3 17.2,0.5 14.1,0.5 C11,0.5 8.5,3 8.5,6.1 L8.5,27 C8.5,28.5 7.3,29.8 5.7,29.8 C4.2,29.8 2.9,28.6 2.9,27 L2.9,5.6 L0.1,5.6 L0.1,26.9 C0.1,30 2.6,32.5 5.7,32.5 C8.8,32.5 11.3,30 11.3,26.9 L11.3,6 C11.3,4.5 12.5,3.2 14.1,3.2 C15.6,3.2 16.9,4.4 16.9,6 L16.9,26.9 C16.9,30 19.4,32.5 22.5,32.5 C25.6,32.5 28.1,30 28.1,26.9 L28.1,6.1 C28.1,4.6 29.3,3.3 30.9,3.3 C32.4,3.3 33.7,4.5 33.7,6.1 L33.7,31.3 L36.5,32.3 L36.5,6.1 C36.4,3.1 33.9,0.6 30.9,0.6 Z" id="Shape" fill="url(#linearGradient-2)"></path>
            </g>
            <g id="Group" transform="translate(48.000000, 4.000000)" fill="#434345">
                <polygon id="Shape" points="10.9 14 9 14 9 5.4 0.4 14.2 0.4 1.2 2.3 1.2 2.3 9.8 10.9 1 10.9 14"></polygon>
                <polygon id="Shape" points="24.7 1.2 24.7 14 22.8 14 22.8 8.4 16 8.4 16 14 14 14 14 1.2 16 1.2 16 6.6 22.8 6.6 22.8 1.2"></polygon>
                <path d="M35,1.5 C38.4,1.8 40.7,3.8 40.7,7 C40.7,10.3 38,12.2 35,12.5 L35,14 L33.1,14 L33.1,12.6 C29.7,12.3 27.5,10.4 27.5,7.1 C27.5,3.8 29.7,1.8 33.1,1.5 L33.1,0.2 L35,0.2 L35,1.5 Z M33.1,10.8 L33.1,3.3 C31,3.5 29.5,4.7 29.5,7.1 C29.5,9.5 31.2,10.6 33.1,10.8 Z M35,3.3 L35,10.8 C36.9,10.6 38.7,9.4 38.7,7 C38.7,4.6 37.1,3.5 35,3.3 Z" id="Shape"></path>
                <path d="M43.1,7.7 C43.1,3.9 45.7,1.1 49.7,1.1 C53.6,1.1 56.3,3.6 56.3,7.7 C56.3,11.4 53.5,14.2 49.7,14.2 C45.9,14.1 43.1,11.4 43.1,7.7 Z M45.2,7.7 C45.2,10.6 47.3,12.3 49.8,12.3 C52.2,12.3 54.3,10.6 54.3,7.6 C54.3,4.6 52.4,2.8 49.8,2.8 C47.1,2.8 45.2,4.7 45.2,7.7 Z" id="Shape"></path>
                <polygon id="Shape" points="70.7 1 70.7 14 68.7 14 68.7 6 64.8 10.3 60.9 6 60.9 14 59 14 59 1 64.8 7.5"></polygon>
                <polygon id="Shape" points="82.2 14 73.9 14 73.9 1.2 81.9 1.2 81.9 3 75.8 3 75.8 6.6 81.7 6.6 81.7 8.4 75.8 8.4 75.8 12.2 82.1 12.2 82.1 14"></polygon>
                <path d="M96.9,16.6 L95,16.6 L95,14 L86,14 L86,16.6 L84,16.6 L84,12.2 L85.4,12.2 C86.7,10.6 86.8,9.6 86.8,7.3 L86.8,1.2 L95.1,1.2 L95.1,12.2 L96.7,12.2 L96.7,16.6 L96.9,16.6 Z M88.8,7.8 C88.8,9.6 88.7,10.8 87.8,12.2 L93.2,12.2 L93.2,3 L88.7,3 L88.7,7.8 L88.8,7.8 Z" id="Shape"></path>
                <polygon id="Shape" points="109.7 14 107.8 14 107.8 5.4 99.2 14.2 99.2 1.2 101.1 1.2 101.1 9.8 109.7 1"></polygon>
                <path d="M123.9,14 L121.8,14 L120.3,10.8 L115.2,10.8 L113.7,14 L111.6,14 L117.8,1 L123.9,14 Z M116.1,9.1 L119.6,9.1 L117.9,5.2 L116.1,9.1 Z" id="Shape"></path>
            </g>
            <g id="Group" transform="translate(48.000000, 22.000000)" fill="#434345">
                <path d="M1.8,7 L0.3,7 L0.3,0.3 L3.6,0.3 L3.7,0.9 L1,0.9 L1,3.1 L2,3.1 C3.4,3.1 4.2,3.8 4.2,5 C4.2,6.3 3.3,7 1.8,7 Z M2,3.7 L1,3.7 L1,6.4 L1.9,6.4 C2.9,6.4 3.5,5.9 3.5,5 C3.5,4.2 3,3.7 2,3.7 Z" id="Shape"></path>
                <path d="M9.2,7.1 C8.1,7.1 7.3,6.3 7.2,4.9 L6.2,4.9 L6.2,7 L5.6,7 L5.6,2.4 L6.2,2.4 L6.2,4.4 L7.2,4.4 C7.3,3.1 8.1,2.3 9.2,2.3 C10.4,2.3 11.2,3.2 11.2,4.7 C11.2,6.2 10.3,7.1 9.2,7.1 Z M9.2,2.9 C8.4,2.9 7.9,3.6 7.9,4.8 C7.9,5.9 8.4,6.6 9.2,6.6 C10,6.6 10.6,5.9 10.6,4.8 C10.5,3.6 10,2.9 9.2,2.9 Z" id="Shape"></path>
                <path d="M14.4,7.1 C13.9,7.1 13.5,7 13.2,6.9 L13.2,8.7 L12.6,8.8 L12.6,2.4 L13,2.4 L13.1,3.1 C13.5,2.7 13.9,2.3 14.6,2.3 C15.6,2.3 16.4,3 16.4,4.6 C16.5,6.3 15.5,7.1 14.4,7.1 Z M14.6,2.9 C14.1,2.9 13.6,3.2 13.2,3.7 L13.2,6.2 C13.6,6.4 13.9,6.5 14.4,6.5 C15.2,6.5 15.9,5.9 15.9,4.6 C15.8,3.5 15.3,2.9 14.6,2.9 Z" id="Shape"></path>
                <path d="M19.6,7.1 C18.4,7.1 17.5,6.2 17.5,4.7 C17.5,3.2 18.4,2.3 19.6,2.3 C20.8,2.3 21.7,3.2 21.7,4.7 C21.7,6.3 20.8,7.1 19.6,7.1 Z M19.6,2.9 C18.7,2.9 18.2,3.6 18.2,4.8 C18.2,5.9 18.8,6.6 19.6,6.6 C20.5,6.6 21,5.9 21,4.8 C21.1,3.6 20.5,2.9 19.6,2.9 Z" id="Shape"></path>
                <polygon id="Shape" points="26.1 4.7 26.1 7 25.5 7 25.5 2.4 26.1 2.4 26.1 4.5 28.1 2.4 28.9 2.4 26.7 4.6 29 7 28.3 7.1"></polygon>
                <path d="M31.9,7.1 C31.4,7.1 31,7 30.7,6.9 L30.7,8.7 L30.1,8.8 L30.1,2.4 L30.6,2.4 L30.7,3.1 C31.1,2.7 31.5,2.3 32.2,2.3 C33.2,2.3 34,3 34,4.6 C34,6.3 33,7.1 31.9,7.1 Z M32.1,2.9 C31.6,2.9 31.1,3.2 30.7,3.7 L30.7,6.2 C31.1,6.4 31.4,6.5 31.9,6.5 C32.7,6.5 33.4,5.9 33.4,4.6 C33.4,3.5 32.8,2.9 32.1,2.9 Z" id="Shape"></path>
                <path d="M37.2,7.1 C36,7.1 35.1,6.3 35.1,4.7 C35.1,3.2 35.9,2.3 37.1,2.3 C38.3,2.3 39,3.3 39,4.6 L39,4.7 L35.8,4.7 C35.8,5.8 36.3,6.5 37.3,6.5 C37.9,6.5 38.4,6.2 38.9,5.8 L39,6.4 C38.5,6.9 37.9,7.1 37.2,7.1 Z M35.8,4.3 L38.3,4.3 C38.2,3.5 37.8,2.9 37.1,2.9 C36.4,2.9 35.9,3.3 35.8,4.3 Z" id="Shape"></path>
                <path d="M43.1,7 L43,6.4 C42.6,6.8 42,7.1 41.4,7.1 C40.6,7.1 40,6.7 40,5.8 C40,4.7 40.9,4.2 43,4 L43,3.7 C43,3.1 42.6,2.8 42,2.8 C41.5,2.8 40.9,3 40.4,3.2 L40.3,2.6 C40.8,2.4 41.4,2.2 42,2.2 C43,2.2 43.5,2.7 43.5,3.6 L43.5,7 L43.1,7 Z M43,4.6 C41.2,4.8 40.7,5.2 40.7,5.8 C40.7,6.3 41,6.5 41.5,6.5 C42,6.5 42.5,6.2 43,5.8 L43,4.6 Z" id="Shape"></path>
                <polygon id="Shape" points="46.3 3 44.7 3 44.7 2.4 48.5 2.4 48.6 3 46.9 3 46.9 7 46.3 7"></polygon>
                <polygon id="Shape" points="49.7 2.4 50.3 2.4 50.3 6.1 52.7 2.4 53.4 2.4 53.4 7 52.8 7 52.8 3.3 50.3 7 49.7 7 49.7 2.4"></polygon>
                <path d="M56.9,7 L55.1,7 L55.1,2.4 L56.9,2.4 C58,2.4 58.5,2.9 58.5,3.5 C58.5,4 58.2,4.3 57.7,4.5 C58.3,4.6 58.7,5 58.7,5.6 C58.7,6.6 58,7 56.9,7 Z M56.9,3 L55.7,3 L55.7,4.4 L56.8,4.4 C57.5,4.4 57.8,4.1 57.8,3.7 C57.9,3.2 57.6,3 56.9,3 Z M56.9,4.9 L55.7,4.9 L55.7,6.5 L56.9,6.5 C57.6,6.5 58,6.2 58,5.7 C58,5.2 57.6,4.9 56.9,4.9 Z" id="Shape"></path>
                <polygon id="Shape" points="63.1 7 63.1 4.9 60.7 4.9 60.7 7 60 7 60 2.4 60.6 2.4 60.6 4.3 63 4.3 63 2.4 63.6 2.4 63.6 7"></polygon>
                <path d="M66.8,7 L65.4,7 L65.4,2.4 L66,2.4 L66,4 L66.9,4 C68.1,4 68.6,4.6 68.6,5.4 C68.6,6.5 67.9,7 66.8,7 Z M66.8,4.6 L66,4.6 L66,6.5 L66.8,6.5 C67.6,6.5 68,6.1 68,5.5 C68,5 67.6,4.6 66.8,4.6 Z M69.5,7 L69.5,2.4 L70.1,2.4 L70.1,7 L69.5,7 Z" id="Shape"></path>
                <polygon id="Shape" points="74.6 7.1 73.3 5.1 72.1 7 71.4 7 73 4.6 71.5 2.4 72.1 2.3 73.3 4.1 74.5 2.3 75.2 2.3 73.7 4.5 75.3 6.8"></polygon>
                <polygon id="Shape" points="78.9 2.4 79.5 2.4 79.5 6.1 81.9 2.4 82.6 2.4 82.6 7 82 7 82 3.3 79.5 7 78.9 7"></polygon>
                <polygon id="Shape" points="87.3 7 87.3 4.9 84.9 4.9 84.9 7 84.3 7 84.3 2.4 84.9 2.4 84.9 4.3 87.3 4.3 87.3 2.4 87.9 2.4 87.9 7"></polygon>
                <polygon id="Shape" points="89.6 2.4 90.2 2.4 90.2 6.1 92.6 2.4 93.3 2.4 93.3 7 92.7 7 92.7 3.3 90.2 7 89.6 7"></polygon>
                <polygon id="Shape" points="95 2.4 95.6 2.4 95.6 6.5 97.9 6.5 97.9 2.4 98.5 2.4 98.5 6.5 99.1 6.5 99.1 8.4 98.5 8.5 98.5 7 95 7"></polygon>
                <polygon id="Shape" points="100.4 2.4 101 2.4 101 6.1 103.4 2.4 104.1 2.4 104.1 7 103.5 7 103.5 3.3 101 7 100.4 7"></polygon>
                <path d="M108.6,7 L108.5,6.4 C108.1,6.8 107.5,7.1 106.9,7.1 C106.1,7.1 105.5,6.7 105.5,5.8 C105.5,4.7 106.4,4.2 108.5,4 L108.5,3.7 C108.5,3.1 108.1,2.8 107.5,2.8 C107,2.8 106.4,3 105.9,3.2 L105.8,2.6 C106.3,2.4 106.9,2.2 107.5,2.2 C108.5,2.2 109,2.7 109,3.6 L109,7 L108.6,7 Z M108.5,4.6 C106.7,4.8 106.2,5.2 106.2,5.8 C106.2,6.3 106.5,6.5 107,6.5 C107.5,6.5 108,6.2 108.5,5.8 L108.5,4.6 Z" id="Shape"></path>
                <polygon id="Shape" points="111.8 3 110.2 3 110.2 2.4 114 2.4 114.1 3 112.4 3 112.4 7 111.8 7 111.8 3"></polygon>
                <polygon id="Shape" points="115.2 2.4 115.8 2.4 115.8 6.1 118.2 2.4 118.9 2.4 118.9 7 118.3 7 118.3 3.3 115.8 7 115.2 7"></polygon>
                <path d="M122.4,7 L120.6,7 L120.6,2.4 L122.4,2.4 C123.5,2.4 124,2.9 124,3.5 C124,4 123.7,4.3 123.2,4.5 C123.8,4.6 124.2,5 124.2,5.6 C124.2,6.6 123.5,7 122.4,7 Z M122.4,3 L121.2,3 L121.2,4.4 L122.3,4.4 C123,4.4 123.3,4.1 123.3,3.7 C123.4,3.2 123.1,3 122.4,3 Z M122.4,4.9 L121.2,4.9 L121.2,6.5 L122.4,6.5 C123.1,6.5 123.5,6.2 123.5,5.7 C123.5,5.2 123.1,4.9 122.4,4.9 Z" id="Shape"></path>
            </g>
        </g>
    </g>
</svg>