<?xml version="1.0" encoding="UTF-8"?>
<svg width="172px" height="32px" viewBox="0 0 172 32" version="1.1" xmlns="http://www.w3.org/2000/svg" xmlns:xlink="http://www.w3.org/1999/xlink">
    <!-- Generator: Sketch 51.2 (57519) - http://www.bohemiancoding.com/sketch -->
    <title>Vector Smart Object</title>
    <desc>Created with Sketch.</desc>
    <defs>
        <linearGradient x1="0%" y1="50.1501502%" x2="1298.56631%" y2="50.1501502%" id="linearGradient-1">
            <stop stop-color="#56308D" offset="0%"></stop>
            <stop stop-color="#962378" offset="100%"></stop>
        </linearGradient>
        <linearGradient x1="2.35408968e-13%" y1="50.2356268%" x2="100%" y2="50.2356268%" id="linearGradient-2">
            <stop stop-color="#56308D" offset="0%"></stop>
            <stop stop-color="#962378" offset="100%"></stop>
        </linearGradient>
    </defs>
    <g id="Page-1" stroke="none" stroke-width="1" fill="none" fill-rule="evenodd">
        <g id="Vector-Smart-Object" fill-rule="nonzero">
            <polygon id="Shape" fill="url(#linearGradient-1)" points="2.79 1.23 0 0.23 0 3.56 2.79 3.56"></polygon>
            <path d="M30.65,0.07 C27.5721521,0.0699950575 25.0755159,2.56215706 25.07,5.64 L25.07,26.43 C25.1320359,27.4648105 24.6152019,28.4486979 23.7279444,28.9848466 C22.8406869,29.5209952 21.7293131,29.5209952 20.8420556,28.9848466 C19.9547981,28.4486979 19.4379641,27.4648105 19.5,26.43 L19.5,5.58 C19.5,2.50377394 17.0062261,0.01 13.93,0.01 C10.8537739,0.01 8.36,2.50377394 8.36,5.58 L8.36,26.43 C8.4220359,27.4648105 7.90520191,28.4486979 7.0179444,28.9848466 C6.13068689,29.5209952 5.01931311,29.5209952 4.1320556,28.9848466 C3.24479809,28.4486979 2.7279641,27.4648105 2.79,26.43 L2.79,5.14 L-8.52651283e-14,5.14 L-8.52651283e-14,26.43 C0.126543845,29.4172124 2.58510845,31.7738327 5.575,31.7738327 C8.56489155,31.7738327 11.0234562,29.4172124 11.15,26.43 L11.15,5.58 C11.15,4.0446484 12.3946484,2.8 13.93,2.8 C15.4653516,2.8 16.71,4.0446484 16.71,5.58 L16.71,26.43 C16.8365438,29.4172124 19.2951084,31.7738327 22.285,31.7738327 C25.2748916,31.7738327 27.7334562,29.4172124 27.86,26.43 L27.86,5.64 C27.9483281,4.16661371 29.1689685,3.01695808 30.645,3.01695808 C32.1210315,3.01695808 33.3416719,4.16661371 33.43,5.64 L33.43,30.84 L36.22,31.84 L36.22,5.64 C36.2144961,2.56605664 33.7239434,0.0755039405 30.65,0.07 Z" id="Shape" fill="url(#linearGradient-2)"></path>
            <polygon id="Shape" fill="#444446" points="58.68 17.46 56.74 17.46 56.74 8.88 48.11 17.67 48.11 4.67 50.05 4.67 50.05 13.23 58.68 4.46"></polygon>
            <polygon id="Shape" fill="#444446" points="72.51 4.69 72.51 17.46 70.51 17.46 70.51 11.89 63.73 11.89 63.73 17.46 61.73 17.46 61.73 4.69 63.73 4.69 63.73 10.07 70.51 10.07 70.51 4.69"></polygon>
            <path d="M82.82,5.01 C86.18,5.28 88.54,7.28 88.54,10.55 C88.54,13.82 85.8,15.76 82.82,16.08 L82.82,17.46 L80.87,17.46 L80.87,16.08 C77.47,15.78 75.22,13.89 75.22,10.6 C75.22,7.31 77.45,5.29 80.87,5.01 L80.87,3.67 L82.82,3.67 L82.82,5.01 Z M80.87,14.3 L80.87,6.79 C78.77,6.99 77.22,8.17 77.22,10.6 C77.22,13.03 79,14.08 80.87,14.3 Z M82.82,6.79 L82.82,14.32 C84.72,14.1 86.52,12.96 86.52,10.55 C86.52,8.14 84.89,7.01 82.82,6.79 Z" id="Shape" fill="#444446"></path>
            <path d="M90.9,11.2 C90.8139421,9.41659085 91.4826817,7.67935232 92.7423523,6.41397325 C94.0020229,5.14859419 95.73622,4.47200663 97.52,4.55 C101.41,4.55 104.07,7.02 104.07,11.14 C104.105863,12.8870083 103.426966,14.5729371 102.190441,15.8075744 C100.953916,17.0422118 99.2669514,17.7185323 97.52,17.68 C95.7651507,17.7610202 94.0555524,17.1091405 92.8001611,15.8802983 C91.5447699,14.6514561 90.8565023,12.95618 90.9,11.2 Z M92.9,11.2 C92.854522,12.4351313 93.3259399,13.6333209 94.2008499,14.506333 C95.0757599,15.3793452 96.2749704,15.8481601 97.51,15.8 C98.752314,15.8425976 99.9544506,15.3565325 100.818032,14.4624491 C101.681614,13.5683656 102.125676,12.3500879 102.04,11.11 C102.04,8.11 100.13,6.33 97.51,6.33 C96.235727,6.30300192 95.0097751,6.81763962 94.1365943,7.7461092 C93.2634134,8.67457878 92.824917,9.9297803 92.93,11.2 L92.9,11.2 Z" id="Shape" fill="#444446"></path>
            <polygon id="Shape" fill="#444446" points="118.51 4.5 118.51 17.5 116.51 17.5 116.51 9.5 112.62 13.81 108.73 9.5 108.73 17.5 106.81 17.5 106.81 4.5 112.65 11.04"></polygon>
            <polygon id="Shape" fill="#444446" points="129.92 17.46 121.63 17.46 121.63 4.69 129.68 4.69 129.68 6.47 123.57 6.47 123.57 10.09 129.51 10.09 129.51 11.87 123.59 11.87 123.59 15.7 129.94 15.7"></polygon>
            <path d="M144.66,20.07 L142.71,20.07 L142.71,17.46 L133.76,17.46 L133.76,20.07 L131.81,20.07 L131.81,15.7 L133.25,15.7 C134.55,14.14 134.67,13.06 134.67,10.77 L134.67,4.69 L143.02,4.69 L143.02,15.69 L144.66,15.69 L144.66,20.07 Z M136.59,11.34 C136.733713,12.8630233 136.383068,14.3918347 135.59,15.7 L141.03,15.7 L141.03,6.47 L136.57,6.47 L136.59,11.34 Z" id="Shape" fill="#444446"></path>
            <polygon id="Shape" fill="#444446" points="157.51 17.46 155.56 17.46 155.56 8.88 146.93 17.67 146.93 4.67 148.88 4.67 148.88 13.23 157.51 4.46"></polygon>
            <path d="M171.7,17.46 L169.64,17.46 L168.17,14.3 L163.05,14.3 L161.55,17.46 L159.51,17.46 L165.66,4.46 L171.7,17.46 Z M163.86,12.62 L167.37,12.62 L165.63,8.73 L163.86,12.62 Z" id="Shape" fill="#444446"></path>
            <path d="M49.61,28.54 L48.09,28.54 L48.09,21.83 L51.39,21.83 L51.49,22.43 L48.76,22.43 L48.76,24.66 L49.76,24.66 C51.13,24.66 51.97,25.33 51.97,26.56 C51.97,27.79 51.06,28.54 49.61,28.54 Z M49.72,25.25 L48.72,25.25 L48.72,27.95 L49.6,27.95 C50.65,27.95 51.25,27.47 51.25,26.58 C51.25,25.69 50.74,25.25 49.72,25.25 Z" id="Shape" fill="#444446"></path>
            <path d="M56.95,28.64 C56.3887549,28.6420315 55.8524828,28.408146 55.472115,27.995447 C55.0917472,27.5827479 54.9022902,27.0292172 54.95,26.47 L53.95,26.47 L53.95,28.54 L53.31,28.54 L53.31,23.94 L53.95,23.94 L53.95,25.94 L54.95,25.94 C54.9310023,25.3975454 55.1332991,24.8706665 55.5104507,24.4803147 C55.8876022,24.0899628 56.407213,23.8696674 56.95,23.87 C58.11,23.87 58.95,24.77 58.95,26.27 C58.95,27.77 58.1,28.64 56.95,28.64 Z M56.95,24.39 C56.12,24.39 55.61,25.12 55.61,26.24 C55.61,27.36 56.13,28.09 56.95,28.09 C57.77,28.09 58.3,27.37 58.3,26.24 C58.3,25.11 57.78,24.39 56.95,24.39 Z" id="Shape" fill="#444446"></path>
            <path d="M62.16,28.6 C61.7486784,28.6039695 61.340704,28.5257744 60.96,28.37 L60.96,30.2 L60.32,30.31 L60.32,23.93 L60.82,23.93 L60.92,24.59 C61.2753888,24.1234288 61.8236553,23.843776 62.41,23.83 C63.41,23.83 64.26,24.56 64.26,26.1 C64.26,27.64 63.28,28.6 62.16,28.6 Z M62.34,24.42 C61.7782671,24.4662314 61.2691764,24.7687346 60.96,25.24 L60.96,27.78 C61.3245582,27.9672819 61.7302747,28.0601153 62.14,28.05 C62.97,28.05 63.61,27.42 63.61,26.14 C63.61,25.02 63.07,24.42 62.34,24.42 Z" id="Shape" fill="#444446"></path>
            <path d="M67.41,28.64 C66.4145204,28.7726516 65.440558,28.2766789 64.9623355,27.393571 C64.484113,26.5104632 64.6010212,25.4237598 65.2561374,24.6625772 C65.9112535,23.9013946 66.9684226,23.6239321 67.9129084,23.9652864 C68.8573942,24.3066406 69.4929009,25.1958667 69.51,26.2 C69.6034175,26.8117914 69.4248349,27.4338577 69.0211224,27.9029332 C68.6174099,28.3720087 68.0288813,28.6412526 67.41,28.64 Z M67.41,24.39 C66.55,24.39 66,25.09 66,26.24 C66,27.39 66.57,28.09 67.41,28.09 C68.25,28.09 68.83,27.39 68.83,26.24 C68.83,25.09 68.27,24.39 67.41,24.39 Z" id="Shape" fill="#444446"></path>
            <polygon id="Shape" fill="#444446" points="73.84 26.2 73.84 28.52 73.2 28.52 73.2 23.92 73.84 23.92 73.84 26.01 75.84 23.92 76.68 23.92 74.51 26.11 76.8 28.48 76.06 28.6"></polygon>
            <path d="M79.7,28.6 C79.2886784,28.6039695 78.880704,28.5257744 78.5,28.37 L78.5,30.2 L77.86,30.31 L77.86,23.93 L78.36,23.93 L78.46,24.59 C78.8153888,24.1234288 79.3636553,23.843776 79.95,23.83 C80.95,23.83 81.8,24.56 81.8,26.1 C81.8,27.64 80.82,28.6 79.7,28.6 Z M79.88,24.42 C79.3290107,24.4598881 78.8255268,24.7465432 78.51,25.2 L78.51,27.74 C78.8745582,27.9272819 79.2802747,28.0201153 79.69,28.01 C80.51,28.01 81.16,27.38 81.16,26.1 C81.15,25.02 80.61,24.42 79.88,24.42 Z" id="Shape" fill="#444446"></path>
            <path d="M84.95,28.64 C83.75,28.64 82.88,27.82 82.88,26.24 C82.88,24.66 83.72,23.84 84.88,23.84 C86.04,23.84 86.74,24.84 86.74,26.15 L86.74,26.28 L83.51,26.28 C83.51,27.42 84.05,28.08 84.97,28.08 C85.5781692,28.0601133 86.1580059,27.8182183 86.6,27.4 L86.69,27.98 C86.2083868,28.4023292 85.5905484,28.6366817 84.95,28.64 Z M83.51,25.78 L86.03,25.78 C85.97,24.95 85.57,24.36 84.82,24.36 C84.07,24.36 83.67,24.85 83.51,25.78 Z" id="Shape" fill="#444446"></path>
            <path d="M90.89,28.54 L90.78,27.93 C90.3512581,28.3659869 89.7711573,28.6202286 89.16,28.64 C88.8042568,28.6843716 88.4470027,28.57003 88.1831333,28.3273472 C87.9192638,28.0846643 87.7754894,27.7382059 87.79,27.38 C87.79,26.3 88.67,25.8 90.79,25.59 L90.79,25.29 C90.79,24.67 90.42,24.41 89.79,24.41 C89.2387373,24.4228116 88.6979353,24.5631463 88.21,24.82 L88.12,24.24 C88.655143,23.9867922 89.2380681,23.8504354 89.83,23.84 C90.83,23.84 91.38,24.32 91.38,25.26 L91.38,28.54 L90.89,28.54 Z M90.75,26.1 C88.94,26.28 88.43,26.72 88.43,27.34 C88.4220312,27.5556996 88.509928,27.7638676 88.6700774,27.908581 C88.8302269,28.0532943 89.0462085,28.1197152 89.26,28.09 C89.824174,28.0493286 90.3540545,27.8039477 90.75,27.4 L90.75,26.1 Z" id="Shape" fill="#444446"></path>
            <polygon id="Shape" fill="#444446" points="94.05 24.49 92.43 24.49 92.43 23.94 96.27 23.94 96.35 24.49 94.69 24.49 94.69 28.49 94.05 28.49"></polygon>
            <polygon id="Shape" fill="#444446" points="97.51 23.94 98.14 23.94 98.14 27.6 100.59 23.94 101.27 23.94 101.27 28.54 100.65 28.54 100.65 24.82 98.14 28.54 97.51 28.54"></polygon>
            <path d="M104.66,28.54 L102.86,28.54 L102.86,23.94 L104.69,23.94 C105.75,23.94 106.25,24.42 106.25,25.08 C106.242184,25.5533009 105.91864,25.9628502 105.46,26.08 C106.032806,26.1224166 106.472205,26.6057552 106.46,27.18 C106.44,28.09 105.76,28.54 104.66,28.54 Z M104.66,24.47 L103.51,24.47 L103.51,25.88 L104.66,25.88 C105.33,25.88 105.66,25.58 105.66,25.14 C105.66,24.7 105.33,24.47 104.65,24.47 L104.66,24.47 Z M104.66,26.38 L103.51,26.38 L103.51,28.01 L104.7,28.01 C105.43,28.01 105.84,27.73 105.84,27.19 C105.84,26.65 105.4,26.38 104.68,26.38 L104.66,26.38 Z" id="Shape" fill="#444446"></path>
            <polygon id="Shape" fill="#444446" points="110.83 28.54 110.83 26.42 108.43 26.42 108.43 28.54 107.79 28.54 107.79 23.94 108.43 23.94 108.43 25.87 110.83 25.87 110.83 23.94 111.51 23.94 111.51 28.54"></polygon>
            <path d="M114.56,28.54 L113.11,28.54 L113.11,23.94 L113.76,23.94 L113.76,25.56 L114.63,25.56 C115.8,25.56 116.38,26.12 116.38,27.01 C116.38,27.9 115.66,28.54 114.56,28.54 Z M114.61,26.11 L113.76,26.11 L113.76,28 L114.57,28 C115.33,28 115.75,27.63 115.75,27 C115.75,26.37 115.4,26.11 114.61,26.11 Z M117.28,28.54 L117.28,23.94 L117.92,23.94 L117.92,28.54 L117.28,28.54 Z" id="Shape" fill="#444446"></path>
            <polygon id="Shape" fill="#444446" points="122.41 28.61 121.1 26.61 119.86 28.53 119.17 28.53 120.76 26.17 119.26 23.98 119.9 23.85 121.11 25.7 122.28 23.93 122.97 23.93 121.45 26.2 123.05 28.53"></polygon>
            <polygon id="Shape" fill="#444446" points="126.63 23.94 127.26 23.94 127.26 27.6 129.71 23.94 130.39 23.94 130.39 28.54 129.77 28.54 129.77 24.82 127.26 28.54 126.63 28.54"></polygon>
            <polygon id="Shape" fill="#444446" points="135.07 28.54 135.07 26.42 132.67 26.42 132.67 28.54 132.03 28.54 132.03 23.94 132.67 23.94 132.67 25.87 135.07 25.87 135.07 23.94 135.72 23.94 135.72 28.54"></polygon>
            <polygon id="Shape" fill="#444446" points="137.36 23.94 137.99 23.94 137.99 27.6 140.44 23.94 141.12 23.94 141.12 28.54 140.51 28.54 140.51 24.82 138 28.54 137.37 28.54"></polygon>
            <polygon id="Shape" fill="#444446" points="142.76 23.94 143.4 23.94 143.4 27.99 145.74 27.99 145.74 23.94 146.39 23.94 146.39 27.99 146.94 27.99 146.94 29.94 146.34 30.04 146.34 28.54 142.76 28.54"></polygon>
            <polygon id="Shape" fill="#444446" points="148.17 23.94 148.8 23.94 148.8 27.6 151.25 23.94 151.93 23.94 151.93 28.54 151.31 28.54 151.31 24.82 148.8 28.54 148.17 28.54"></polygon>
            <path d="M156.38,28.54 L156.28,27.93 C155.845861,28.364072 155.263514,28.6177328 154.65,28.64 C154.295002,28.6808439 153.93979,28.5652856 153.676775,28.3233879 C153.413759,28.0814903 153.268942,27.7371687 153.28,27.38 C153.28,26.3 154.16,25.8 156.28,25.59 L156.28,25.29 C156.28,24.67 155.91,24.41 155.28,24.41 C154.728938,24.4242413 154.188455,24.564493 153.7,24.82 L153.61,24.24 C154.145143,23.9867922 154.728068,23.8504354 155.32,23.84 C156.32,23.84 156.87,24.32 156.87,25.26 L156.87,28.54 L156.38,28.54 Z M156.24,26.1 C154.43,26.28 153.92,26.72 153.92,27.34 C153.912031,27.5556996 153.999928,27.7638676 154.160077,27.908581 C154.320227,28.0532943 154.536208,28.1197152 154.75,28.09 C155.314646,28.0511627 155.845148,27.8054942 156.24,27.4 L156.24,26.1 Z" id="Shape" fill="#444446"></path>
            <polygon id="Shape" fill="#444446" points="159.51 24.49 157.89 24.49 157.89 23.94 161.73 23.94 161.81 24.49 160.15 24.49 160.15 28.49 159.51 28.49"></polygon>
            <polygon id="Shape" fill="#444446" points="162.95 23.94 163.58 23.94 163.58 27.6 166.03 23.94 166.71 23.94 166.71 28.54 166.09 28.54 166.09 24.82 163.58 28.54 162.95 28.54"></polygon>
            <path d="M170.15,28.54 L168.35,28.54 L168.35,23.94 L170.18,23.94 C171.24,23.94 171.75,24.42 171.75,25.08 C171.73758,25.5549528 171.410642,25.9636247 170.95,26.08 C171.522806,26.1224166 171.962205,26.6057552 171.95,27.18 C171.93,28.09 171.25,28.54 170.15,28.54 Z M170.15,24.47 L168.99,24.47 L168.99,25.88 L170.13,25.88 C170.8,25.88 171.13,25.58 171.13,25.14 C171.13,24.7 170.82,24.47 170.14,24.47 L170.15,24.47 Z M170.15,26.38 L168.96,26.38 L168.96,28.01 L170.14,28.01 C170.87,28.01 171.28,27.73 171.28,27.19 C171.28,26.65 170.89,26.38 170.17,26.38 L170.15,26.38 Z" id="Shape" fill="#444446"></path>
        </g>
    </g>
</svg>